<svg xmlns="http://www.w3.org/2000/svg" width="1024" height="1024" viewBox="0 0 270.9 270.9"><path d="M135.5 0C199.36 0 271 26.46 271 135.5c0 109-71.61 135.5-135.5 135.5C71.64 271 0 244.54 0 135.5 0 26.5 71.61 0 135.5 0"/><path fill="#fff" d="M83.07 48.69c-23.12 0-34.67 11.54-34.67 34.63s13.32 34.63 39.96 34.63h12.88v35.03H88.36c-26.64 0-39.96 11.54-39.96 34.63s11.56 34.63 34.67 34.63c23.12 0 34.67-13.41 34.67-40.24v-13.19h34.34V182c0 26.83 11.56 40.24 34.67 40.24 23.12 0 34.67-11.54 34.67-34.63s-13.32-34.63-39.96-34.63h-12.88V88.93c0-15.83 6.164-23.75 18.49-23.75V48.69c-23.34 0-35 13.41-35 40.24v64.05h-34.34V88.93c0-26.83-11.56-40.24-34.67-40.24zm-.33 16.49c12.33 0 18.49 7.916 18.49 23.75v13.19H88.35c-16.07 0-24.11-6.158-24.11-18.47 0-12.31 6.167-18.47 18.49-18.47zm5.614 103.6h12.88v13.19c0 15.83-6.164 23.75-18.49 23.75-12.33 0-18.49-6.156-18.49-18.47 0-12.31 8.037-18.47 24.11-18.47zm80.24 0h12.88c16.07 0 24.11 6.157 24.11 18.47 0 12.31-6.166 18.47-18.49 18.47s-18.49-7.916-18.49-23.75z"/></svg>